<svg xmlns="http://www.w3.org/2000/svg" viewBox="0 0 24 24" fill="none" stroke="#2563eb" stroke-width="2" stroke-linecap="round" stroke-linejoin="round">
  <path d="M2 9V5a1 1 0 0 1 1-1h2a1 1 0 0 1 1 1v4"/>
  <path d="M2 19v-4a1 1 0 0 1 1-1h2a1 1 0 0 1 1 1v4"/>
  <path d="M9 9V5a1 1 0 0 1 1-1h2a1 1 0 0 1 1 1v4"/>
  <path d="M9 19v-4a1 1 0 0 1 1-1h2a1 1 0 0 1 1 1v4"/>
  <path d="M16 9V5a1 1 0 0 1 1-1h2a1 1 0 0 1 1 1v4"/>
  <path d="M16 19v-4a1 1 0 0 1 1-1h2a1 1 0 0 1 1 1v4"/>
  <path d="M2 12h20"/>
  <path d="M2 15h20"/>
</svg>